<mxfile host="app.diagrams.net" modified="2020-08-20T18:28:33.951Z" agent="5.0 (Windows NT 10.0; Win64; x64) AppleWebKit/537.36 (KHTML, like Gecko) Chrome/84.0.4147.125 Safari/537.36" etag="CYz-fBHzbgO95V6X1k_E" version="13.6.4" type="github">
  <diagram id="f4-wcO6tstq3c8zM26es" name="Page-1">
    <mxGraphModel dx="1038" dy="580" grid="0" gridSize="10" guides="1" tooltips="1" connect="1" arrows="1" fold="1" page="1" pageScale="1" pageWidth="827" pageHeight="1169" math="0" shadow="0">
      <root>
        <mxCell id="0" />
        <mxCell id="1" parent="0" />
        <mxCell id="CzNVUl70GwCPWx1bBjXm-2" value="" style="rounded=0;whiteSpace=wrap;html=1;" vertex="1" parent="1">
          <mxGeometry x="280" y="160" width="320" height="730" as="geometry" />
        </mxCell>
        <mxCell id="CzNVUl70GwCPWx1bBjXm-3" value="Actor" style="shape=umlActor;verticalLabelPosition=bottom;verticalAlign=top;html=1;outlineConnect=0;" vertex="1" parent="1">
          <mxGeometry x="90" y="460" width="30" height="60" as="geometry" />
        </mxCell>
        <mxCell id="CzNVUl70GwCPWx1bBjXm-6" value="Actor" style="shape=umlActor;verticalLabelPosition=bottom;verticalAlign=top;html=1;outlineConnect=0;" vertex="1" parent="1">
          <mxGeometry x="90" y="620" width="30" height="60" as="geometry" />
        </mxCell>
        <mxCell id="CzNVUl70GwCPWx1bBjXm-7" value="Actor" style="shape=umlActor;verticalLabelPosition=bottom;verticalAlign=top;html=1;outlineConnect=0;" vertex="1" parent="1">
          <mxGeometry x="730" y="460" width="30" height="60" as="geometry" />
        </mxCell>
        <mxCell id="CzNVUl70GwCPWx1bBjXm-16" value="Log in" style="ellipse;whiteSpace=wrap;html=1;" vertex="1" parent="1">
          <mxGeometry x="360" y="200" width="150" height="60" as="geometry" />
        </mxCell>
        <mxCell id="CzNVUl70GwCPWx1bBjXm-17" value="Add Sales Data" style="ellipse;whiteSpace=wrap;html=1;" vertex="1" parent="1">
          <mxGeometry x="335" y="280" width="200" height="80" as="geometry" />
        </mxCell>
        <mxCell id="CzNVUl70GwCPWx1bBjXm-18" value="View Sales Data" style="ellipse;whiteSpace=wrap;html=1;" vertex="1" parent="1">
          <mxGeometry x="335" y="380" width="200" height="80" as="geometry" />
        </mxCell>
        <mxCell id="CzNVUl70GwCPWx1bBjXm-19" value="Add UserData" style="ellipse;whiteSpace=wrap;html=1;" vertex="1" parent="1">
          <mxGeometry x="330" y="480" width="200" height="80" as="geometry" />
        </mxCell>
        <mxCell id="CzNVUl70GwCPWx1bBjXm-20" value="Update User Data" style="ellipse;whiteSpace=wrap;html=1;" vertex="1" parent="1">
          <mxGeometry x="330" y="580" width="200" height="80" as="geometry" />
        </mxCell>
        <mxCell id="CzNVUl70GwCPWx1bBjXm-21" value="View User Data" style="ellipse;whiteSpace=wrap;html=1;" vertex="1" parent="1">
          <mxGeometry x="330" y="680" width="200" height="80" as="geometry" />
        </mxCell>
        <mxCell id="CzNVUl70GwCPWx1bBjXm-22" value="Delete User Data" style="ellipse;whiteSpace=wrap;html=1;" vertex="1" parent="1">
          <mxGeometry x="335" y="780" width="200" height="80" as="geometry" />
        </mxCell>
        <mxCell id="CzNVUl70GwCPWx1bBjXm-23" value="" style="endArrow=none;html=1;entryX=0;entryY=0.5;entryDx=0;entryDy=0;exitX=0.5;exitY=0.5;exitDx=0;exitDy=0;exitPerimeter=0;" edge="1" parent="1" source="CzNVUl70GwCPWx1bBjXm-3" target="CzNVUl70GwCPWx1bBjXm-16">
          <mxGeometry width="50" height="50" relative="1" as="geometry">
            <mxPoint x="140" y="380" as="sourcePoint" />
            <mxPoint x="190" y="330" as="targetPoint" />
          </mxGeometry>
        </mxCell>
        <mxCell id="CzNVUl70GwCPWx1bBjXm-24" value="" style="endArrow=none;html=1;entryX=0;entryY=0.5;entryDx=0;entryDy=0;exitX=0.5;exitY=0.5;exitDx=0;exitDy=0;exitPerimeter=0;" edge="1" parent="1" source="CzNVUl70GwCPWx1bBjXm-3" target="CzNVUl70GwCPWx1bBjXm-17">
          <mxGeometry width="50" height="50" relative="1" as="geometry">
            <mxPoint x="240" y="460" as="sourcePoint" />
            <mxPoint x="290" y="410" as="targetPoint" />
          </mxGeometry>
        </mxCell>
        <mxCell id="CzNVUl70GwCPWx1bBjXm-25" value="" style="endArrow=none;html=1;entryX=0;entryY=0.5;entryDx=0;entryDy=0;exitX=0.5;exitY=0.5;exitDx=0;exitDy=0;exitPerimeter=0;" edge="1" parent="1" source="CzNVUl70GwCPWx1bBjXm-3" target="CzNVUl70GwCPWx1bBjXm-18">
          <mxGeometry width="50" height="50" relative="1" as="geometry">
            <mxPoint x="220" y="540" as="sourcePoint" />
            <mxPoint x="220" y="550" as="targetPoint" />
          </mxGeometry>
        </mxCell>
        <mxCell id="CzNVUl70GwCPWx1bBjXm-27" value="" style="endArrow=none;html=1;exitX=0.5;exitY=0.5;exitDx=0;exitDy=0;exitPerimeter=0;entryX=1;entryY=0.5;entryDx=0;entryDy=0;" edge="1" parent="1" source="CzNVUl70GwCPWx1bBjXm-7" target="CzNVUl70GwCPWx1bBjXm-17">
          <mxGeometry width="50" height="50" relative="1" as="geometry">
            <mxPoint x="690" y="380" as="sourcePoint" />
            <mxPoint x="740" y="330" as="targetPoint" />
          </mxGeometry>
        </mxCell>
        <mxCell id="CzNVUl70GwCPWx1bBjXm-28" value="" style="endArrow=none;html=1;exitX=0.5;exitY=0.5;exitDx=0;exitDy=0;exitPerimeter=0;entryX=1;entryY=0.5;entryDx=0;entryDy=0;" edge="1" parent="1" source="CzNVUl70GwCPWx1bBjXm-7" target="CzNVUl70GwCPWx1bBjXm-16">
          <mxGeometry width="50" height="50" relative="1" as="geometry">
            <mxPoint x="650" y="380" as="sourcePoint" />
            <mxPoint x="700" y="330" as="targetPoint" />
          </mxGeometry>
        </mxCell>
        <mxCell id="CzNVUl70GwCPWx1bBjXm-29" value="" style="endArrow=none;html=1;exitX=0.5;exitY=0.5;exitDx=0;exitDy=0;exitPerimeter=0;entryX=1;entryY=0.5;entryDx=0;entryDy=0;" edge="1" parent="1" source="CzNVUl70GwCPWx1bBjXm-7" target="CzNVUl70GwCPWx1bBjXm-18">
          <mxGeometry width="50" height="50" relative="1" as="geometry">
            <mxPoint x="750" y="370" as="sourcePoint" />
            <mxPoint x="800" y="320" as="targetPoint" />
          </mxGeometry>
        </mxCell>
        <mxCell id="CzNVUl70GwCPWx1bBjXm-30" value="" style="endArrow=none;html=1;exitX=0.5;exitY=0.5;exitDx=0;exitDy=0;exitPerimeter=0;entryX=1;entryY=0.5;entryDx=0;entryDy=0;" edge="1" parent="1" source="CzNVUl70GwCPWx1bBjXm-7" target="CzNVUl70GwCPWx1bBjXm-19">
          <mxGeometry width="50" height="50" relative="1" as="geometry">
            <mxPoint x="120" y="340" as="sourcePoint" />
            <mxPoint x="170" y="290" as="targetPoint" />
          </mxGeometry>
        </mxCell>
        <mxCell id="CzNVUl70GwCPWx1bBjXm-31" value="" style="endArrow=none;html=1;exitX=0.5;exitY=0.5;exitDx=0;exitDy=0;exitPerimeter=0;entryX=1;entryY=0.5;entryDx=0;entryDy=0;" edge="1" parent="1" source="CzNVUl70GwCPWx1bBjXm-7" target="CzNVUl70GwCPWx1bBjXm-20">
          <mxGeometry width="50" height="50" relative="1" as="geometry">
            <mxPoint x="90" y="280" as="sourcePoint" />
            <mxPoint x="140" y="230" as="targetPoint" />
          </mxGeometry>
        </mxCell>
        <mxCell id="CzNVUl70GwCPWx1bBjXm-32" value="" style="endArrow=none;html=1;entryX=0.5;entryY=0.5;entryDx=0;entryDy=0;entryPerimeter=0;exitX=1;exitY=0.5;exitDx=0;exitDy=0;" edge="1" parent="1" source="CzNVUl70GwCPWx1bBjXm-21" target="CzNVUl70GwCPWx1bBjXm-7">
          <mxGeometry width="50" height="50" relative="1" as="geometry">
            <mxPoint x="640" y="680" as="sourcePoint" />
            <mxPoint x="690" y="630" as="targetPoint" />
          </mxGeometry>
        </mxCell>
        <mxCell id="CzNVUl70GwCPWx1bBjXm-33" value="" style="endArrow=none;html=1;exitX=1;exitY=0.5;exitDx=0;exitDy=0;entryX=0.5;entryY=0.5;entryDx=0;entryDy=0;entryPerimeter=0;" edge="1" parent="1" source="CzNVUl70GwCPWx1bBjXm-22" target="CzNVUl70GwCPWx1bBjXm-7">
          <mxGeometry width="50" height="50" relative="1" as="geometry">
            <mxPoint x="700" y="700" as="sourcePoint" />
            <mxPoint x="700" y="490" as="targetPoint" />
          </mxGeometry>
        </mxCell>
        <mxCell id="CzNVUl70GwCPWx1bBjXm-34" value="" style="endArrow=none;html=1;entryX=0;entryY=0.5;entryDx=0;entryDy=0;exitX=0.5;exitY=0.5;exitDx=0;exitDy=0;exitPerimeter=0;" edge="1" parent="1" source="CzNVUl70GwCPWx1bBjXm-6" target="CzNVUl70GwCPWx1bBjXm-16">
          <mxGeometry width="50" height="50" relative="1" as="geometry">
            <mxPoint x="170" y="630" as="sourcePoint" />
            <mxPoint x="220" y="580" as="targetPoint" />
          </mxGeometry>
        </mxCell>
        <mxCell id="CzNVUl70GwCPWx1bBjXm-35" value="" style="endArrow=none;html=1;entryX=0;entryY=0.5;entryDx=0;entryDy=0;exitX=0.5;exitY=0.5;exitDx=0;exitDy=0;exitPerimeter=0;" edge="1" parent="1" source="CzNVUl70GwCPWx1bBjXm-6" target="CzNVUl70GwCPWx1bBjXm-17">
          <mxGeometry width="50" height="50" relative="1" as="geometry">
            <mxPoint x="10" y="540" as="sourcePoint" />
            <mxPoint x="60" y="490" as="targetPoint" />
          </mxGeometry>
        </mxCell>
        <mxCell id="CzNVUl70GwCPWx1bBjXm-36" value="" style="endArrow=none;html=1;entryX=0;entryY=0.5;entryDx=0;entryDy=0;exitX=0.5;exitY=0.5;exitDx=0;exitDy=0;exitPerimeter=0;" edge="1" parent="1" source="CzNVUl70GwCPWx1bBjXm-6" target="CzNVUl70GwCPWx1bBjXm-18">
          <mxGeometry width="50" height="50" relative="1" as="geometry">
            <mxPoint x="190" y="660" as="sourcePoint" />
            <mxPoint x="240" y="610" as="targetPoint" />
          </mxGeometry>
        </mxCell>
        <mxCell id="CzNVUl70GwCPWx1bBjXm-37" value="" style="endArrow=none;html=1;entryX=0;entryY=0.5;entryDx=0;entryDy=0;exitX=0.5;exitY=0.5;exitDx=0;exitDy=0;exitPerimeter=0;" edge="1" parent="1" source="CzNVUl70GwCPWx1bBjXm-6" target="CzNVUl70GwCPWx1bBjXm-19">
          <mxGeometry width="50" height="50" relative="1" as="geometry">
            <mxPoint x="180" y="690" as="sourcePoint" />
            <mxPoint x="230" y="640" as="targetPoint" />
          </mxGeometry>
        </mxCell>
        <mxCell id="CzNVUl70GwCPWx1bBjXm-38" value="" style="endArrow=none;html=1;entryX=0;entryY=0.5;entryDx=0;entryDy=0;exitX=0.5;exitY=0.5;exitDx=0;exitDy=0;exitPerimeter=0;" edge="1" parent="1" source="CzNVUl70GwCPWx1bBjXm-6" target="CzNVUl70GwCPWx1bBjXm-20">
          <mxGeometry width="50" height="50" relative="1" as="geometry">
            <mxPoint x="210" y="710" as="sourcePoint" />
            <mxPoint x="260" y="660" as="targetPoint" />
          </mxGeometry>
        </mxCell>
        <mxCell id="CzNVUl70GwCPWx1bBjXm-39" value="" style="endArrow=none;html=1;entryX=0;entryY=0.5;entryDx=0;entryDy=0;exitX=0.5;exitY=0.5;exitDx=0;exitDy=0;exitPerimeter=0;" edge="1" parent="1" source="CzNVUl70GwCPWx1bBjXm-6" target="CzNVUl70GwCPWx1bBjXm-21">
          <mxGeometry width="50" height="50" relative="1" as="geometry">
            <mxPoint x="190" y="720" as="sourcePoint" />
            <mxPoint x="240" y="670" as="targetPoint" />
          </mxGeometry>
        </mxCell>
        <mxCell id="CzNVUl70GwCPWx1bBjXm-40" value="" style="endArrow=none;html=1;entryX=0;entryY=0.5;entryDx=0;entryDy=0;exitX=0.5;exitY=0.5;exitDx=0;exitDy=0;exitPerimeter=0;" edge="1" parent="1" source="CzNVUl70GwCPWx1bBjXm-6" target="CzNVUl70GwCPWx1bBjXm-22">
          <mxGeometry width="50" height="50" relative="1" as="geometry">
            <mxPoint x="80" y="840" as="sourcePoint" />
            <mxPoint x="130" y="790" as="targetPoint" />
          </mxGeometry>
        </mxCell>
      </root>
    </mxGraphModel>
  </diagram>
</mxfile>
